<svg width="15" height="15" viewBox="0 0 15 15" fill="none" xmlns="http://www.w3.org/2000/svg">
<path d="M6.54057 0.697047C6.84256 -0.232372 8.15744 -0.232371 8.45943 0.697047L9.53841 4.01781C9.67346 4.43346 10.0608 4.71488 10.4978 4.71488H13.9895C14.9667 4.71488 15.3731 5.9654 14.5825 6.53982L11.7576 8.59216C11.4041 8.84905 11.2561 9.30439 11.3912 9.72004L12.4702 13.0408C12.7721 13.9702 11.7084 14.7431 10.9178 14.1687L8.09296 12.1163C7.73939 11.8594 7.26061 11.8594 6.90704 12.1163L4.08223 14.1687C3.29162 14.7431 2.22786 13.9702 2.52984 13.0408L3.60883 9.72004C3.74388 9.30439 3.59593 8.84905 3.24236 8.59216L0.417546 6.53982C-0.373065 5.9654 0.0332553 4.71488 1.0105 4.71488H4.50216C4.9392 4.71488 5.32654 4.43346 5.46159 4.01781L6.54057 0.697047Z" fill="#FF9F69"/>
</svg>
